/* XPM */
static char *result[] = {
/* columns rows colors chars-per-pixel */
"160 20 2 1 ",
"  c gray12",
". c #C4CFA1",
/* pixels */
"..          ..........      ........      ..      ....          ....................      ..........    ..........    ....          ....          ......        ",
"..          ..........      ........      ..      ....          ....................      ..........    ..........    ....          ....          ......        ",
"              ........      ........      ..      ....          ....................      ..........    ..........    ....          ....            ....  ....  ",
"              ........      ........      ..      ....          ....................      ..........    ..........    ....          ....            ....  ....  ",
"    ..............    ......    ....              ....    ......................    ......    ......    ..........    ....    ..........    ....    ....  ....  ",
"    ..............    ......    ....              ....    ......................    ......    ......    ..........    ....    ..........    ....    ....  ....  ",
"    ..............    ......    ....    ..  ..    ....    ......................    ......    ......    ..........    ....    ..........    ....    ....  ....  ",
"    ..............    ......    ....    ..  ..    ....    ......................    ......    ......    ..........    ....    ..........    ....    ....  ....  ",
"    ..............    ......    ....    ..  ..    ....    ......................    ......    ........    ......    ......    ..........            ....        ",
"    ..............    ......    ....    ..  ..    ....    ......................    ......    ........    ......    ......    ..........            ....        ",
"    ..      ......              ....    ......    ....      ....................    ......    ........    ......    ......      ........          ........    ..",
"    ..      ......              ....    ......    ....      ....................    ......    ........    ......    ......      ........          ........    ..",
"    ..        ....              ....    ......    ....      ....................    ......    ..........    ..    ........      ........    ....    ......    ..",
"    ..        ....              ....    ......    ....      ....................    ......    ..........    ..    ........      ........    ....    ......    ..",
"    ........  ....    ......    ....    ......    ....    ......................    ......    ..........    ..    ........    ..........    ....    ............",
"    ........  ....    ......    ....    ......    ....    ......................    ......    ..........    ..    ........    ..........    ....    ............",
"..            ....    ......    ....    ......    ....          ....................      ................      ..........          ....    ....    ......    ..",
"..            ....    ......    ....    ......    ....          ....................      ................      ..........          ....    ....    ......    ..",
"..          ......    ......    ....    ......    ....          ....................      ................      ..........          ....    ....    ......    ..",
"..          ......    ......    ....    ......    ....          ....................      ................      ..........          ....    ....    ......    .."
};
