/* XPM */
static char *result[] = {
/* columns rows colors chars-per-pixel */
"64 64 2 1 ",
"  c #8B956D",
". c #C4CFA1",
/* pixels */
"................................................................",
"................................................................",
"................................................................",
"................................................................",
"................................................................",
"................................................................",
"..............................  ................................",
"..............................  ................................",
"................    ........    ................................",
"................    ........    ................................",
"................  ..  ....  ..  ................................",
"................  ..  ....  ..  ................................",
"................        ..  ..  ................................",
"................        ..  ..  ................................",
"..................            ..................................",
"..................            ..................................",
"......................      ....................................",
"......................      ....................................",
"................................................................",
"................................................................",
"................................................................",
"................................................................",
"................................................................",
"................................................................",
"................................................................",
"................................................................",
"................................................................",
"................................................................",
"................................................................",
"................................................................",
"....................................  ..........................",
"....................................  ..........................",
"........................................  ....  ................",
"........................................  ....  ................",
"......................................    ..    ................",
"......................................    ..    ................",
"......................................        ..................",
"......................................        ..................",
"........................................    ....................",
"........................................    ....................",
"................................................................",
"................................................................",
"................................................................",
"................................................................",
"................................................................",
"................................................................",
"................................................................",
"................................................................",
"................................................................",
"................................................................",
"................................................................",
"................................................................",
"................................................................",
"................................................................",
"................................................................",
"................................................................",
"................................................................",
"................................................................",
"................................................................",
"................................................................",
"................................................................",
"................................................................",
"................................................................",
"................................................................"
};
