/* XPM */
static char *result[] = {
/* columns rows colors chars-per-pixel */
"64 64 5 1 ",
"  c gray12",
". c #4D533C",
"X c #8B956D",
"o c #C4CFA1",
"O c None",
/* pixels */
"OOOOOOOOOOOOOOOOOOOOOOOOOOOOOOOOOOOOOOOOOOOOOOOOOOOOOOOOOOOOOOOO",
"OOOOOOOOOOOOOOOOOOOOOOOOOOOOOOOOOOOOOOOOOOOOOOOOOOOOOOOOOOOOOOOO",
"OOOOOOOOOOOOOOOOOOOOOOOOOOOOOOOOOOOOOOOOOOOOOOOOOOOOOOOOOOOOOOOO",
"OOOOOOOOOOOOOOOOOOOOOOOOOOOOOOOOOOOOOOOOOOOOOOOOOOOOOOOOOOOOOOOO",
"OOOOOOOOOOOOOOOOOOOOOOOOOOOOOO    OOOOOOOOOOOOOOOOOOOOOOOOOOOOOO",
"OOOOOOOOOOOOOOOOOOOOOOOOOOOOOO    OOOOOOOOOOOOOOOOOOOOOOOOOOOOOO",
"OOOOOOOOOOOOOOOOOOOOOOOOOOOO  ....  OOOOOOOOOOOOOOOOOOOOOOOOOOOO",
"OOOOOOOOOOOOOOOOOOOOOOOOOOOO  ....  OOOOOOOOOOOOOOOOOOOOOOOOOOOO",
"OOOOOOOOOOOOOOOOOOOOOOOOOO  ..    ..  OOOOOOOOOOOOOOOOOOOOOOOOOO",
"OOOOOOOOOOOOOOOOOOOOOOOOOO  ..    ..  OOOOOOOOOOOOOOOOOOOOOOOOOO",
"OOOOOOOOOOOOOOOOOOOOOOOO  ..  XX..  ..  OOOOOOOOOOOOOOOOOOOOOOOO",
"OOOOOOOOOOOOOOOOOOOOOOOO  ..  XX..  ..  OOOOOOOOOOOOOOOOOOOOOOOO",
"OOOOOOOOOOOOOOOOOOOOOOOO  ..  XX..  ..  OOOOOOOOOOOOOOOOOOOOOOOO",
"OOOOOOOOOOOOOOOOOOOOOOOO  ..  XX..  ..  OOOOOOOOOOOOOOOOOOOOOOOO",
"OOOOOOOOOOOOOOOOOOOOOO  ..  XXXXXX..  ..  OOOOOOOOOOOOOOOOOOOOOO",
"OOOOOOOOOOOOOOOOOOOOOO  ..  XXXXXX..  ..  OOOOOOOOOOOOOOOOOOOOOO",
"OOOOOOOOOOOOOOOOOOOO  ..  XXooXXXXoo..  ..  OOOOOOOOOOOOOOOOOOOO",
"OOOOOOOOOOOOOOOOOOOO  ..  XXooXXXXoo..  ..  OOOOOOOOOOOOOOOOOOOO",
"OOOOOOOOOOOOOOOOOO  ..  XXoooo..XXoooo..  ..  OOOOOOOOOOOOOOOOOO",
"OOOOOOOOOOOOOOOOOO  ..  XXoooo..XXoooo..  ..  OOOOOOOOOOOOOOOOOO",
"OOOOOOOOOOOOOOOOOO  ..  XXooooXXXXooooXX  ..  OOOOOOOOOOOOOOOOOO",
"OOOOOOOOOOOOOOOOOO  ..  XXooooXXXXooooXX  ..  OOOOOOOOOOOOOOOOOO",
"OOOOOOOOOOOOOOOO  ..  XXXXooooXXXXooooXX..  ..  OOOOOOOOOOOOOOOO",
"OOOOOOOOOOOOOOOO  ..  XXXXooooXXXXooooXX..  ..  OOOOOOOOOOOOOOOO",
"OOOOOOOOOOOOOO  ..  XXooXXooooXXXXooooXXoo..  ..  OOOOOOOOOOOOOO",
"OOOOOOOOOOOOOO  ..  XXooXXooooXXXXooooXXoo..  ..  OOOOOOOOOOOOOO",
"OOOOOOOOOOOO  ..  XXooooXXooooXXXXooooXXoooo..  ..  OOOOOOOOOOOO",
"OOOOOOOOOOOO  ..  XXooooXXooooXXXXooooXXoooo..  ..  OOOOOOOOOOOO",
"OOOOOOOOOO  ..  XXXXooooXXooooXXXXooooXXooooXX..  ..  OOOOOOOOOO",
"OOOOOOOOOO  ..  XXXXooooXXooooXXXXooooXXooooXX..  ..  OOOOOOOOOO",
"OOOOOOOO  ..  XXooXXooooXXooooXXXXooooXXooooXXoo..  ..  OOOOOOOO",
"OOOOOOOO  ..  XXooXXooooXXooooXXXXooooXXooooXXoo..  ..  OOOOOOOO",
"OOOOOO  ..  XXoo..XXooooXXooXXXXXXXXooXX..ooXXoooo..  ..  OOOOOO",
"OOOOOO  ..  XXoo..XXooooXXooXXXXXXXXooXX..ooXXoooo..  ..  OOOOOO",
"OOOOOO  ..  XXooooXXooooXXXX        XXXXooooXXoooo..  ..  OOOOOO",
"OOOOOO  ..  XXooooXXooooXXXX        XXXXooooXXoooo..  ..  OOOOOO",
"OOOOOO      XXooooXXooooXX            XXooooXXooooXX      OOOOOO",
"OOOOOO      XXooooXXooooXX            XXooooXXooooXX      OOOOOO",
"OOOOOOOO  ooXXooooXXooXX                XXooXXooooXXoo  OOOOOOOO",
"OOOOOOOO  ooXXooooXXooXX                XXooXXooooXXoo  OOOOOOOO",
"OOOOOOOO  ooXXooooXXooXX                XXooXXooooXXoo  OOOOOOOO",
"OOOOOOOO  ooXXooooXXooXX                XXooXXooooXXoo  OOOOOOOO",
"OOOOOOOO  ooXXooooXXooXX                XXooXXooooXXoo  OOOOOOOO",
"OOOOOOOO  ooXXooooXXooXX                XXooXXooooXXoo  OOOOOOOO",
"OOOOOOOO  ooXXooooXXooXX                XXooXXooooXX..  OOOOOOOO",
"OOOOOOOO  ooXXooooXXooXX                XXooXXooooXX..  OOOOOOOO",
"OOOOOOOO  ooXXooooXXoo..XX            XXooooXXooooXXoo  OOOOOOOO",
"OOOOOOOO  ooXXooooXXoo..XX            XXooooXXooooXXoo  OOOOOOOO",
"OOOOOOOO  ..XXooooXXoooo..XX        XXXXooooXXooooXXoo  OOOOOOOO",
"OOOOOOOO  ..XXooooXXoooo..XX        XXXXooooXXooooXXoo  OOOOOOOO",
"OOOOOOOO  ooXXooooXXooooXX..XXXXXXXXooXXooooXXooooXXoo  OOOOOOOO",
"OOOOOOOO  ooXXooooXXooooXX..XXXXXXXXooXXooooXXooooXXoo  OOOOOOOO",
"OOOOOOOO  ooXXooooXXooooXXooooooooooooXXooooXXooooXXoo  OOOOOOOO",
"OOOOOOOO  ooXXooooXXooooXXooooooooooooXXooooXXooooXXoo  OOOOOOOO",
"OOOOOOOO                                                OOOOOOOO",
"OOOOOOOO                                                OOOOOOOO",
"OOOOOOOOOOOOOOOOOOOOOOOOOOOOOOOOOOOOOOOOOOOOOOOOOOOOOOOOOOOOOOOO",
"OOOOOOOOOOOOOOOOOOOOOOOOOOOOOOOOOOOOOOOOOOOOOOOOOOOOOOOOOOOOOOOO",
"OOOOOOOOOOOOOOOOOOOOOOOOOOOOOOOOOOOOOOOOOOOOOOOOOOOOOOOOOOOOOOOO",
"OOOOOOOOOOOOOOOOOOOOOOOOOOOOOOOOOOOOOOOOOOOOOOOOOOOOOOOOOOOOOOOO",
"OOOOOOOOOOOOOOOOOOOOOOOOOOOOOOOOOOOOOOOOOOOOOOOOOOOOOOOOOOOOOOOO",
"OOOOOOOOOOOOOOOOOOOOOOOOOOOOOOOOOOOOOOOOOOOOOOOOOOOOOOOOOOOOOOOO",
"OOOOOOOOOOOOOOOOOOOOOOOOOOOOOOOOOOOOOOOOOOOOOOOOOOOOOOOOOOOOOOOO",
"OOOOOOOOOOOOOOOOOOOOOOOOOOOOOOOOOOOOOOOOOOOOOOOOOOOOOOOOOOOOOOOO"
};
