/* XPM */
static char *_6c3a5018310436a9d07191ddd275985amgZV1wjQiUDSKB2[] = {
/* columns rows colors chars-per-pixel */
"64 64 5 1 ",
"  c None",
". c gray12",
"X c #4D533C",
"o c #8B956D",
"O c #C4CFA1",
/* pixels */
"                                                                ",
"                                                                ",
"                                                                ",
"                                                                ",
"                              ....                              ",
"                              ....                              ",
"                            ..XXXX..                            ",
"                            ..XXXX..                            ",
"                          ..XX....XX..                          ",
"                          ..XX....XX..                          ",
"                        ..XX..ooXX..XX..                        ",
"                        ..XX..ooXX..XX..                        ",
"                        ..XX..ooXX..XX..                        ",
"                        ..XX..ooXX..XX..                        ",
"                      ..XX..ooooooXX..XX..                      ",
"                      ..XX..ooooooXX..XX..                      ",
"                    ..XX..ooOOooooOOXX..XX..                    ",
"                    ..XX..ooOOooooOOXX..XX..                    ",
"                  ..XX..ooOOOOXXooOOOOXX..XX..                  ",
"                  ..XX..ooOOOOXXooOOOOXX..XX..                  ",
"                  ..XX..ooOOOOooooOOOOoo..XX..                  ",
"                  ..XX..ooOOOOooooOOOOoo..XX..                  ",
"                ..XX..ooooOOOOooooOOOOooXX..XX..                ",
"                ..XX..ooooOOOOooooOOOOooXX..XX..                ",
"              ..XX..ooOOooOOOOooooOOOOooOOXX..XX..              ",
"              ..XX..ooOOooOOOOooooOOOOooOOXX..XX..              ",
"            ..XX..ooOOOOooOOOOooooOOOOooOOOOXX..XX..            ",
"            ..XX..ooOOOOooOOOOooooOOOOooOOOOXX..XX..            ",
"          ..XX..ooooOOOOooOOOOooooOOOOooOOOOooXX..XX..          ",
"          ..XX..ooooOOOOooOOOOooooOOOOooOOOOooXX..XX..          ",
"        ..XX..ooOOooOOOOooOOOOooooOOOOooOOOOooOOXX..XX..        ",
"        ..XX..ooOOooOOOOooOOOOooooOOOOooOOOOooOOXX..XX..        ",
"      ..XX..ooOOXXooOOOOooOOooooooooOOooXXOOooOOOOXX..XX..      ",
"      ..XX..ooOOXXooOOOOooOOooooooooOOooXXOOooOOOOXX..XX..      ",
"      ..XX..ooOOOOooOOOOoooo........ooooOOOOooOOOOXX..XX..      ",
"      ..XX..ooOOOOooOOOOoooo........ooooOOOOooOOOOXX..XX..      ",
"      ......ooOOOOooOOOOoo..OOooOOoo..ooOOOOooOOOOoo......      ",
"      ......ooOOOOooOOOOoo..OOooOOoo..ooOOOOooOOOOoo......      ",
"        ..OOooOOOOooOO........ooXXooOO..ooOOooOOOOooOO..        ",
"        ..OOooOOOOooOO........ooXXooOO..ooOOooOOOOooOO..        ",
"        ..OOooOOOOooOOoo..XXOOooOOooOO..ooOOooOOOOooOO..        ",
"        ..OOooOOOOooOOoo..XXOOooOOooOO..ooOOooOOOOooOO..        ",
"        ..OOooOOOOooOOoo..XXOOooOOoo....ooOOooOOOOooOO..        ",
"        ..OOooOOOOooOOoo..XXOOooOOoo....ooOOooOOOOooOO..        ",
"        ..OOooOOOOooOO........ooOO..XX..ooOOooOOOOooXX..        ",
"        ..OOooOOOOooOO........ooOO..XX..ooOOooOOOOooXX..        ",
"        ..OOooOOOOooOOXXoo..OOooOOoo..ooOOOOooOOOOooOO..        ",
"        ..OOooOOOOooOOXXoo..OOooOOoo..ooOOOOooOOOOooOO..        ",
"        ..XXooOOOOooOOOOXXoo........ooooOOOOooOOOOooOO..        ",
"        ..XXooOOOOooOOOOXXoo........ooooOOOOooOOOOooOO..        ",
"        ..OOooOOOOooOOOOooXXooooooooOOooOOOOooOOOOooOO..        ",
"        ..OOooOOOOooOOOOooXXooooooooOOooOOOOooOOOOooOO..        ",
"        ..OOooOOOOooOOOOooOOOOOOOOOOOOooOOOOooOOOOooOO..        ",
"        ..OOooOOOOooOOOOooOOOOOOOOOOOOooOOOOooOOOOooOO..        ",
"        ................................................        ",
"        ................................................        ",
"                                                                ",
"                                                                ",
"                                                                ",
"                                                                ",
"                                                                ",
"                                                                ",
"                                                                ",
"                                                                "
};
