/* XPM */
static char *result[] = {
/* columns rows colors chars-per-pixel */
"64 64 5 1 ",
"  c gray12",
". c #4D533C",
"X c #8B956D",
"o c #C4CFA1",
"O c None",
/* pixels */
"OOOOOOOOOOOOOOOOOOOOOOOOOOOOOOOOOOOOOOOOOOOOOOOOOOOOOOOOOOOOOOOO",
"OOOOOOOOOOOOOOOOOOOOOOOOOOOOOOOOOOOOOOOOOOOOOOOOOOOOOOOOOOOOOOOO",
"OOOOOOOOOOOOOOOOOOOOOOOOOOOOOOOOOOOOOOOOOOOOOOOOOOOOOOOOOOOOOOOO",
"OOOOOOOOOOOOOOOOOOOOOOOOOOOOOOOOOOOOOOOOOOOOOOOOOOOOOOOOOOOOOOOO",
"OOOOOOOOOOOOOOOOOOOOOOOOOOOOOOOOOOOOOOOOOOOOOOOOOOOOOOOOOOOOOOOO",
"OOOOOOOOOOOOOOOOOOOOOOOOOOOOOOOOOOOOOOOOOOOOOOOOOOOOOOOOOOOOOOOO",
"OOOOOOOOOOOOOOOOOOOOOOOOOOOOOOOOOOOO  OOOOOOOOOOOOOOOOOOOOOOOOOO",
"OOOOOOOOOOOOOOOOOOOOOOOOOOOOOOOOOOOO  OOOOOOOOOOOOOOOOOOOOOOOOOO",
"OOOOOOOOOOOOOOOOOOOOOOOOOOOOOOOOOO    OOOOOOOOOOOOOOOOOOOOOOOOOO",
"OOOOOOOOOOOOOOOOOOOOOOOOOOOOOOOOOO    OOOOOOOOOOOOOOOOOOOOOOOOOO",
"OOOOOOOOOOOOOOOOOOOOOOOOOOOOOOOO    OOOOOOOOOOOOOOOOOOOOOOOOOOOO",
"OOOOOOOOOOOOOOOOOOOOOOOOOOOOOOOO    OOOOOOOOOOOOOOOOOOOOOOOOOOOO",
"OOOOOOOOOOOOOOOOOOOOOOOOOOOOOO    OOOOOOOOOOOOOOOOOOOOOOOOOOOOOO",
"OOOOOOOOOOOOOOOOOOOOOOOOOOOOOO    OOOOOOOOOOOOOOOOOOOOOOOOOOOOOO",
"OOOOOOOOOOOOOOOOOOOOOOOOOOOOOO    OOOOOOOOOOOOOOOOOOOOOOOOOOOOOO",
"OOOOOOOOOOOOOOOOOOOOOOOOOOOOOO    OOOOOOOOOOOOOOOOOOOOOOOOOOOOOO",
"OOOOOOOOOOOOOOOOOOOOOOOO      XXXX      OOOOOOOOOOOOOOOOOOOOOOOO",
"OOOOOOOOOOOOOOOOOOOOOOOO      XXXX      OOOOOOOOOOOOOOOOOOOOOOOO",
"OOOOOOOOOOOOOOOOOO      XX..XXXXooXXXXXX      OOOOOOOOOOOOOOOOOO",
"OOOOOOOOOOOOOOOOOO      XX..XXXXooXXXXXX      OOOOOOOOOOOOOOOOOO",
"OOOOOOOOOOOOOOOO    ..XX..XXXXXXXXooooXXXXXX    OOOOOOOOOOOOOOOO",
"OOOOOOOOOOOOOOOO    ..XX..XXXXXXXXooooXXXXXX    OOOOOOOOOOOOOOOO",
"OOOOOOOOOOOOOO  XX..XX..XX..XXXXXXXXooooXXXXXXXX  OOOOOOOOOOOOOO",
"OOOOOOOOOOOOOO  XX..XX..XX..XXXXXXXXooooXXXXXXXX  OOOOOOOOOOOOOO",
"OOOOOOOOOOOOOO  ..XX..XX..XXXXXXXXXXXXooooXXXXXX  OOOOOOOOOOOOOO",
"OOOOOOOOOOOOOO  ..XX..XX..XXXXXXXXXXXXooooXXXXXX  OOOOOOOOOOOOOO",
"OOOOOOOOOOOOOO  ....XX..XX..XXXXXXXXXXXXooooXXXX  OOOOOOOOOOOOOO",
"OOOOOOOOOOOOOO  ....XX..XX..XXXXXXXXXXXXooooXXXX  OOOOOOOOOOOOOO",
"OOOOOOOOOOOOOO  ......XX..XX..XXXXXXXXXXXXooooXX  OOOOOOOOOOOOOO",
"OOOOOOOOOOOOOO  ......XX..XX..XXXXXXXXXXXXooooXX  OOOOOOOOOOOOOO",
"OOOOOOOOOOOOOO    ..........XX..XXXXXXXXXXoooo    OOOOOOOOOOOOOO",
"OOOOOOOOOOOOOO    ..........XX..XXXXXXXXXXoooo    OOOOOOOOOOOOOO",
"OOOOOOOOOOOOOOOO        ............XXXX        OOOOOOOOOOOOOOOO",
"OOOOOOOOOOOOOOOO        ............XXXX        OOOOOOOOOOOOOOOO",
"OOOOOOOOOOOOOOOO  ......                XXooXX  OOOOOOOOOOOOOOOO",
"OOOOOOOOOOOOOOOO  ......                XXooXX  OOOOOOOOOOOOOOOO",
"OOOOOOOOOOOOOOOO  ....XX..........XXXXXXooXXXX  OOOOOOOOOOOOOOOO",
"OOOOOOOOOOOOOOOO  ....XX..........XXXXXXooXXXX  OOOOOOOOOOOOOOOO",
"OOOOOOOOOOOOOOOOOO  ..XX..XXXXXXXXXXXXXXooXX  OOOOOOOOOOOOOOOOOO",
"OOOOOOOOOOOOOOOOOO  ..XX..XXXXXXXXXXXXXXooXX  OOOOOOOOOOOOOOOOOO",
"OOOOOOOOOOOOOOOOOO  ....XXXXXXXXXXXXXXXXooXX  OOOOOOOOOOOOOOOOOO",
"OOOOOOOOOOOOOOOOOO  ....XXXXXXXXXXXXXXXXooXX  OOOOOOOOOOOOOOOOOO",
"OOOOOOOOOOOOOOOOOOOO  ....XXXXXXXXXXXXXXoo  OOOOOOOOOOOOOOOOOOOO",
"OOOOOOOOOOOOOOOOOOOO  ....XXXXXXXXXXXXXXoo  OOOOOOOOOOOOOOOOOOOO",
"OOOOOOOOOOOOOOOOOOOOOO  ....XXXXXXXXXXXX  OOOOOOOOOOOOOOOOOOOOOO",
"OOOOOOOOOOOOOOOOOOOOOO  ....XXXXXXXXXXXX  OOOOOOOOOOOOOOOOOOOOOO",
"OOOOOOOOOOOOOOOOOOOOOOOO    ..XXXXXX    OOOOOOOOOOOOOOOOOOOOOOOO",
"OOOOOOOOOOOOOOOOOOOOOOOO    ..XXXXXX    OOOOOOOOOOOOOOOOOOOOOOOO",
"OOOOOOOOOOOOOOOOOOOOOOOOOOOO  ..XX  OOOOOOOOOOOOOOOOOOOOOOOOOOOO",
"OOOOOOOOOOOOOOOOOOOOOOOOOOOO  ..XX  OOOOOOOOOOOOOOOOOOOOOOOOOOOO",
"OOOOOOOOOOOOOOOOOOOOOOOOOOOO  ....  OOOOOOOOOOOOOOOOOOOOOOOOOOOO",
"OOOOOOOOOOOOOOOOOOOOOOOOOOOO  ....  OOOOOOOOOOOOOOOOOOOOOOOOOOOO",
"OOOOOOOOOOOOOOOOOOOOOOOOOOOOOO    OOOOOOOOOOOOOOOOOOOOOOOOOOOOOO",
"OOOOOOOOOOOOOOOOOOOOOOOOOOOOOO    OOOOOOOOOOOOOOOOOOOOOOOOOOOOOO",
"OOOOOOOOOOOOOOOOOOOOOOOOOOOOOOOOOOOOOOOOOOOOOOOOOOOOOOOOOOOOOOOO",
"OOOOOOOOOOOOOOOOOOOOOOOOOOOOOOOOOOOOOOOOOOOOOOOOOOOOOOOOOOOOOOOO",
"OOOOOOOOOOOOOOOOOOOOOOOOOOOOOOOOOOOOOOOOOOOOOOOOOOOOOOOOOOOOOOOO",
"OOOOOOOOOOOOOOOOOOOOOOOOOOOOOOOOOOOOOOOOOOOOOOOOOOOOOOOOOOOOOOOO",
"OOOOOOOOOOOOOOOOOOOOOOOOOOOOOOOOOOOOOOOOOOOOOOOOOOOOOOOOOOOOOOOO",
"OOOOOOOOOOOOOOOOOOOOOOOOOOOOOOOOOOOOOOOOOOOOOOOOOOOOOOOOOOOOOOOO",
"OOOOOOOOOOOOOOOOOOOOOOOOOOOOOOOOOOOOOOOOOOOOOOOOOOOOOOOOOOOOOOOO",
"OOOOOOOOOOOOOOOOOOOOOOOOOOOOOOOOOOOOOOOOOOOOOOOOOOOOOOOOOOOOOOOO",
"OOOOOOOOOOOOOOOOOOOOOOOOOOOOOOOOOOOOOOOOOOOOOOOOOOOOOOOOOOOOOOOO",
"OOOOOOOOOOOOOOOOOOOOOOOOOOOOOOOOOOOOOOOOOOOOOOOOOOOOOOOOOOOOOOOO"
};
