/* XPM */
static char *result[] = {
/* columns rows colors chars-per-pixel */
"64 64 5 1 ",
"  c gray12",
". c #4D533C",
"X c #8B956D",
"o c #C4CFA1",
"O c None",
/* pixels */
"OOOOOOOOOOOOOOOOOOOOOOOOOOOOOOOOOOOOOOOOOOOOOOOOOOOOOOOOOOOOOOOO",
"OOOOOOOOOOOOOOOOOOOOOOOOOOOOOOOOOOOOOOOOOOOOOOOOOOOOOOOOOOOOOOOO",
"OOOOOOOOOOOOOOOOOOOOOOOOOOOOOOOOOOOOOOOOOOOOOOOOOOOOOOOOOOOOOOOO",
"OOOOOOOOOOOOOOOOOOOOOOOOOOOOOOOOOOOOOOOOOOOOOOOOOOOOOOOOOOOOOOOO",
"OOOOOOOOOOOOOOOOOOOOOOOOOOOOOOOOOOOOOOOOOOOOOOOOOOOOOOOOOOOOOOOO",
"OOOOOOOOOOOOOOOOOOOOOOOOOOOOOOOOOOOOOOOOOOOOOOOOOOOOOOOOOOOOOOOO",
"OOOOOOOOOOOOOOOOOOOOOOOOOOOOOOOOOOOOOOOOOOOOOOOOOOOOOOOOOOOOOOOO",
"OOOOOOOOOOOOOOOOOOOOOOOOOOOOOOOOOOOOOOOOOOOOOOOOOOOOOOOOOOOOOOOO",
"OOOOOOOOOOOOOOOOOOOOOOOOOOOOOOOOOOOO  OOOOOOOOOOOOOOOOOOOOOOOOOO",
"OOOOOOOOOOOOOOOOOOOOOOOOOOOOOOOOOOOO  OOOOOOOOOOOOOOOOOOOOOOOOOO",
"OOOOOOOOOOOOOOOOOOOOOOOOOOOOOOOOOO    OOOOOOOOOOOOOOOOOOOOOOOOOO",
"OOOOOOOOOOOOOOOOOOOOOOOOOOOOOOOOOO    OOOOOOOOOOOOOOOOOOOOOOOOOO",
"OOOOOOOOOOOOOOOOOOOOOOOOOOOOOOOO    OOOOOOOOOOOOOOOOOOOOOOOOOOOO",
"OOOOOOOOOOOOOOOOOOOOOOOOOOOOOOOO    OOOOOOOOOOOOOOOOOOOOOOOOOOOO",
"OOOOOOOOOOOOOOOOOOOOOOOOOOOOOO    OOOOOOOOOOOOOOOOOOOOOOOOOOOOOO",
"OOOOOOOOOOOOOOOOOOOOOOOOOOOOOO    OOOOOOOOOOOOOOOOOOOOOOOOOOOOOO",
"OOOOOOOOOOOOOOOOOOOOOOOOOOOOOO    OOOOOOOOOOOOOOOOOOOOOOOOOOOOOO",
"OOOOOOOOOOOOOOOOOOOOOOOOOOOOOO    OOOOOOOOOOOOOOOOOOOOOOOOOOOOOO",
"OOOOOOOOOOOOOOOOOOOOOOOO      XXoo      OOOOOOOOOOOOOOOOOOOOOOOO",
"OOOOOOOOOOOOOOOOOOOOOOOO      XXoo      OOOOOOOOOOOOOOOOOOOOOOOO",
"OOOOOOOOOOOOOOOOOO      XX..XXXXXXoooooo      OOOOOOOOOOOOOOOOOO",
"OOOOOOOOOOOOOOOOOO      XX..XXXXXXoooooo      OOOOOOOOOOOOOOOOOO",
"OOOOOOOOOOOOOOOO    ..XX..XXXXXXXXXXXXoooooo    OOOOOOOOOOOOOOOO",
"OOOOOOOOOOOOOOOO    ..XX..XXXXXXXXXXXXoooooo    OOOOOOOOOOOOOOOO",
"OOOOOOOOOOOOOO  XX..XX..XX..XXXXXXXXXXXXXXoooooo  OOOOOOOOOOOOOO",
"OOOOOOOOOOOOOO  XX..XX..XX..XXXXXXXXXXXXXXoooooo  OOOOOOOOOOOOOO",
"OOOOOOOOOOOOOO  ..XX..XX..XXXXXXXXXXXXXXXXXXXXoo  OOOOOOOOOOOOOO",
"OOOOOOOOOOOOOO  ..XX..XX..XXXXXXXXXXXXXXXXXXXXoo  OOOOOOOOOOOOOO",
"OOOOOOOOOOOOOO  ....XX..XX..XXXXXXXXXXXXXXXXXXXX  OOOOOOOOOOOOOO",
"OOOOOOOOOOOOOO  ....XX..XX..XXXXXXXXXXXXXXXXXXXX  OOOOOOOOOOOOOO",
"OOOOOOOOOOOOOO  ......XX..XX..XXXXXXXXXXXXXXXXXX  OOOOOOOOOOOOOO",
"OOOOOOOOOOOOOO  ......XX..XX..XXXXXXXXXXXXXXXXXX  OOOOOOOOOOOOOO",
"OOOOOOOOOOOOOO    ..........XX..XXXXXXXXXXXXXX    OOOOOOOOOOOOOO",
"OOOOOOOOOOOOOO    ..........XX..XXXXXXXXXXXXXX    OOOOOOOOOOOOOO",
"OOOOOOOOOOOOOOOO        ............XXXX        OOOOOOOOOOOOOOOO",
"OOOOOOOOOOOOOOOO        ............XXXX        OOOOOOOOOOOOOOOO",
"OOOOOOOOOOOOOOOO  ......                XXXXoo  OOOOOOOOOOOOOOOO",
"OOOOOOOOOOOOOOOO  ......                XXXXoo  OOOOOOOOOOOOOOOO",
"OOOOOOOOOOOOOOOO  ....XX..........XXXXXXXXoooo  OOOOOOOOOOOOOOOO",
"OOOOOOOOOOOOOOOO  ....XX..........XXXXXXXXoooo  OOOOOOOOOOOOOOOO",
"OOOOOOOOOOOOOOOOOO  ..XX..XXXXXXXXXXXXXXXXoo  OOOOOOOOOOOOOOOOOO",
"OOOOOOOOOOOOOOOOOO  ..XX..XXXXXXXXXXXXXXXXoo  OOOOOOOOOOOOOOOOOO",
"OOOOOOOOOOOOOOOOOO  ....XXXXXXXXXXXXXXXXXXoo  OOOOOOOOOOOOOOOOOO",
"OOOOOOOOOOOOOOOOOO  ....XXXXXXXXXXXXXXXXXXoo  OOOOOOOOOOOOOOOOOO",
"OOOOOOOOOOOOOOOOOOOO  ....XXXXXXXXXXXXXXXX  OOOOOOOOOOOOOOOOOOOO",
"OOOOOOOOOOOOOOOOOOOO  ....XXXXXXXXXXXXXXXX  OOOOOOOOOOOOOOOOOOOO",
"OOOOOOOOOOOOOOOOOOOOOO  ....XXXXXXXXXXXX  OOOOOOOOOOOOOOOOOOOOOO",
"OOOOOOOOOOOOOOOOOOOOOO  ....XXXXXXXXXXXX  OOOOOOOOOOOOOOOOOOOOOO",
"OOOOOOOOOOOOOOOOOOOOOOOO    ..XXXXXX    OOOOOOOOOOOOOOOOOOOOOOOO",
"OOOOOOOOOOOOOOOOOOOOOOOO    ..XXXXXX    OOOOOOOOOOOOOOOOOOOOOOOO",
"OOOOOOOOOOOOOOOOOOOOOOOOOOOO  ..XX  OOOOOOOOOOOOOOOOOOOOOOOOOOOO",
"OOOOOOOOOOOOOOOOOOOOOOOOOOOO  ..XX  OOOOOOOOOOOOOOOOOOOOOOOOOOOO",
"OOOOOOOOOOOOOOOOOOOOOOOOOOOO  ....  OOOOOOOOOOOOOOOOOOOOOOOOOOOO",
"OOOOOOOOOOOOOOOOOOOOOOOOOOOO  ....  OOOOOOOOOOOOOOOOOOOOOOOOOOOO",
"OOOOOOOOOOOOOOOOOOOOOOOOOOOOOO    OOOOOOOOOOOOOOOOOOOOOOOOOOOOOO",
"OOOOOOOOOOOOOOOOOOOOOOOOOOOOOO    OOOOOOOOOOOOOOOOOOOOOOOOOOOOOO",
"OOOOOOOOOOOOOOOOOOOOOOOOOOOOOOOOOOOOOOOOOOOOOOOOOOOOOOOOOOOOOOOO",
"OOOOOOOOOOOOOOOOOOOOOOOOOOOOOOOOOOOOOOOOOOOOOOOOOOOOOOOOOOOOOOOO",
"OOOOOOOOOOOOOOOOOOOOOOOOOOOOOOOOOOOOOOOOOOOOOOOOOOOOOOOOOOOOOOOO",
"OOOOOOOOOOOOOOOOOOOOOOOOOOOOOOOOOOOOOOOOOOOOOOOOOOOOOOOOOOOOOOOO",
"OOOOOOOOOOOOOOOOOOOOOOOOOOOOOOOOOOOOOOOOOOOOOOOOOOOOOOOOOOOOOOOO",
"OOOOOOOOOOOOOOOOOOOOOOOOOOOOOOOOOOOOOOOOOOOOOOOOOOOOOOOOOOOOOOOO",
"OOOOOOOOOOOOOOOOOOOOOOOOOOOOOOOOOOOOOOOOOOOOOOOOOOOOOOOOOOOOOOOO",
"OOOOOOOOOOOOOOOOOOOOOOOOOOOOOOOOOOOOOOOOOOOOOOOOOOOOOOOOOOOOOOOO"
};
