/* XPM */
static char *result[] = {
/* columns rows colors chars-per-pixel */
"64 64 5 1 ",
"  c gray12",
". c #4D533C",
"X c #8B956D",
"o c #C4CFA1",
"O c None",
/* pixels */
"OOOOOOOOOOOOOOOOOOOOOOOOOOOOOOOOOOOOOOOOOOOOOOOOOOOOOOOOOOOOOOOO",
"OOOOOOOOOOOOOOOOOOOOOOOOOOOOOOOOOOOOOOOOOOOOOOOOOOOOOOOOOOOOOOOO",
"OOOOOOOOOOOOOOOOOOOOOOOOOOOOOOOOOOOOOOOOOOOOOOOOOOOOOOOOOOOOOOOO",
"OOOOOOOOOOOOOOOOOOOOOOOOOOOOOOOOOOOOOOOOOOOOOOOOOOOOOOOOOOOOOOOO",
"OOOOOOOOOOOOOOOOOOOOOOOOOOOOOOOOOOOO  OOOOOOOOOOOOOOOOOOOOOOOOOO",
"OOOOOOOOOOOOOOOOOOOOOOOOOOOOOOOOOOOO  OOOOOOOOOOOOOOOOOOOOOOOOOO",
"OOOOOOOOOOOOOOOOOOOOOOOOOOOOOOOOOO    OOOOOOOOOOOOOOOOOOOOOOOOOO",
"OOOOOOOOOOOOOOOOOOOOOOOOOOOOOOOOOO    OOOOOOOOOOOOOOOOOOOOOOOOOO",
"OOOOOOOOOOOOOOOOOOOOOOOOOOOOOOOO    OOOOOOOOOOOOOOOOOOOOOOOOOOOO",
"OOOOOOOOOOOOOOOOOOOOOOOOOOOOOOOO    OOOOOOOOOOOOOOOOOOOOOOOOOOOO",
"OOOOOOOOOOOOOOOOOOOOOOOOOOOOOO    OOOOOOOOOOOOOOOOOOOOOOOOOOOOOO",
"OOOOOOOOOOOOOOOOOOOOOOOOOOOOOO    OOOOOOOOOOOOOOOOOOOOOOOOOOOOOO",
"OOOOOOOOOOOOOOOOOOOOOOOOOOOOOO    OOOOOOOOOOOOOOOOOOOOOOOOOOOOOO",
"OOOOOOOOOOOOOOOOOOOOOOOOOOOOOO    OOOOOOOOOOOOOOOOOOOOOOOOOOOOOO",
"OOOOOOOOOOOOOOOOOOOOOOOO      XXXX      OOOOOOOOOOOOOOOOOOOOOOOO",
"OOOOOOOOOOOOOOOOOOOOOOOO      XXXX      OOOOOOOOOOOOOOOOOOOOOOOO",
"OOOOOOOOOOOOOOOOOO      XX..XXooooXXXXXX      OOOOOOOOOOOOOOOOOO",
"OOOOOOOOOOOOOOOOOO      XX..XXooooXXXXXX      OOOOOOOOOOOOOOOOOO",
"OOOOOOOOOOOOOOOO    ..XX..XXXXooooooXXXXXXXX    OOOOOOOOOOOOOOOO",
"OOOOOOOOOOOOOOOO    ..XX..XXXXooooooXXXXXXXX    OOOOOOOOOOOOOOOO",
"OOOOOOOOOOOOOO  XX..XX..XX..XXXXooooooXXXXXXXXXX  OOOOOOOOOOOOOO",
"OOOOOOOOOOOOOO  XX..XX..XX..XXXXooooooXXXXXXXXXX  OOOOOOOOOOOOOO",
"OOOOOOOOOOOOOO  ..XX..XX..XXXXXXXXooooXXXXXXXXXX  OOOOOOOOOOOOOO",
"OOOOOOOOOOOOOO  ..XX..XX..XXXXXXXXooooXXXXXXXXXX  OOOOOOOOOOOOOO",
"OOOOOOOOOOOOOO  ....XX..XX..XXXXXXXXooooXXXXXXXX  OOOOOOOOOOOOOO",
"OOOOOOOOOOOOOO  ....XX..XX..XXXXXXXXooooXXXXXXXX  OOOOOOOOOOOOOO",
"OOOOOOOOOOOOOO  ......XX..XX..XXXXXXooooXXXXXXXX  OOOOOOOOOOOOOO",
"OOOOOOOOOOOOOO  ......XX..XX..XXXXXXooooXXXXXXXX  OOOOOOOOOOOOOO",
"OOOOOOOOOOOOOO    ..........XX..XXXXooooXXXXXX    OOOOOOOOOOOOOO",
"OOOOOOOOOOOOOO    ..........XX..XXXXooooXXXXXX    OOOOOOOOOOOOOO",
"OOOOOOOOOOOOOOOO        ..........XXoooo        OOOOOOOOOOOOOOOO",
"OOOOOOOOOOOOOOOO        ..........XXoooo        OOOOOOOOOOOOOOOO",
"OOOOOOOOOOOOOOOO  ......                XXXXXX  OOOOOOOOOOOOOOOO",
"OOOOOOOOOOOOOOOO  ......                XXXXXX  OOOOOOOOOOOOOOOO",
"OOOOOOOOOOOOOOOO  ....XX..........XXooooXXXXXX  OOOOOOOOOOOOOOOO",
"OOOOOOOOOOOOOOOO  ....XX..........XXooooXXXXXX  OOOOOOOOOOOOOOOO",
"OOOOOOOOOOOOOOOOOO  ..XX..XXXXXXXXXXooooXXXX  OOOOOOOOOOOOOOOOOO",
"OOOOOOOOOOOOOOOOOO  ..XX..XXXXXXXXXXooooXXXX  OOOOOOOOOOOOOOOOOO",
"OOOOOOOOOOOOOOOOOO  ....XXXXXXXXXXooooXXXXXX  OOOOOOOOOOOOOOOOOO",
"OOOOOOOOOOOOOOOOOO  ....XXXXXXXXXXooooXXXXXX  OOOOOOOOOOOOOOOOOO",
"OOOOOOOOOOOOOOOOOOOO  ....XXXXXXXXooooXXXX  OOOOOOOOOOOOOOOOOOOO",
"OOOOOOOOOOOOOOOOOOOO  ....XXXXXXXXooooXXXX  OOOOOOOOOOOOOOOOOOOO",
"OOOOOOOOOOOOOOOOOOOOOO  ....XXXXXXooXXXX  OOOOOOOOOOOOOOOOOOOOOO",
"OOOOOOOOOOOOOOOOOOOOOO  ....XXXXXXooXXXX  OOOOOOOOOOOOOOOOOOOOOO",
"OOOOOOOOOOOOOOOOOOOOOOOO    ..XXXXoo    OOOOOOOOOOOOOOOOOOOOOOOO",
"OOOOOOOOOOOOOOOOOOOOOOOO    ..XXXXoo    OOOOOOOOOOOOOOOOOOOOOOOO",
"OOOOOOOOOOOOOOOOOOOOOOOOOOOO  ..XX  OOOOOOOOOOOOOOOOOOOOOOOOOOOO",
"OOOOOOOOOOOOOOOOOOOOOOOOOOOO  ..XX  OOOOOOOOOOOOOOOOOOOOOOOOOOOO",
"OOOOOOOOOOOOOOOOOOOOOOOOOOOO  ....  OOOOOOOOOOOOOOOOOOOOOOOOOOOO",
"OOOOOOOOOOOOOOOOOOOOOOOOOOOO  ....  OOOOOOOOOOOOOOOOOOOOOOOOOOOO",
"OOOOOOOOOOOOOOOOOOOOOOOOOOOOOO    OOOOOOOOOOOOOOOOOOOOOOOOOOOOOO",
"OOOOOOOOOOOOOOOOOOOOOOOOOOOOOO    OOOOOOOOOOOOOOOOOOOOOOOOOOOOOO",
"OOOOOOOOOOOOOOOOOOOOOOOOOOOOOOOOOOOOOOOOOOOOOOOOOOOOOOOOOOOOOOOO",
"OOOOOOOOOOOOOOOOOOOOOOOOOOOOOOOOOOOOOOOOOOOOOOOOOOOOOOOOOOOOOOOO",
"OOOOOOOOOOOOOOOOOOOOOOOOOOOOOOOOOOOOOOOOOOOOOOOOOOOOOOOOOOOOOOOO",
"OOOOOOOOOOOOOOOOOOOOOOOOOOOOOOOOOOOOOOOOOOOOOOOOOOOOOOOOOOOOOOOO",
"OOOOOOOOOOOOOOOOOOOOOOOOOOOOOOOOOOOOOOOOOOOOOOOOOOOOOOOOOOOOOOOO",
"OOOOOOOOOOOOOOOOOOOOOOOOOOOOOOOOOOOOOOOOOOOOOOOOOOOOOOOOOOOOOOOO",
"OOOOOOOOOOOOOOOOOOOOOOOOOOOOOOOOOOOOOOOOOOOOOOOOOOOOOOOOOOOOOOOO",
"OOOOOOOOOOOOOOOOOOOOOOOOOOOOOOOOOOOOOOOOOOOOOOOOOOOOOOOOOOOOOOOO",
"OOOOOOOOOOOOOOOOOOOOOOOOOOOOOOOOOOOOOOOOOOOOOOOOOOOOOOOOOOOOOOOO",
"OOOOOOOOOOOOOOOOOOOOOOOOOOOOOOOOOOOOOOOOOOOOOOOOOOOOOOOOOOOOOOOO",
"OOOOOOOOOOOOOOOOOOOOOOOOOOOOOOOOOOOOOOOOOOOOOOOOOOOOOOOOOOOOOOOO",
"OOOOOOOOOOOOOOOOOOOOOOOOOOOOOOOOOOOOOOOOOOOOOOOOOOOOOOOOOOOOOOOO"
};
