/* XPM */
static char *result[] = {
/* columns rows colors chars-per-pixel */
"64 64 5 1 ",
"  c gray12",
". c #4D533C",
"X c #8B956D",
"o c #C4CFA1",
"O c None",
/* pixels */
"OOOOOOOOOOOOOOOOOOOOOOOOOOOOOOOOOOOOOOOOOOOOOOOOOOOOOOOOOOOOOOOO",
"OOOOOOOOOOOOOOOOOOOOOOOOOOOOOOOOOOOOOOOOOOOOOOOOOOOOOOOOOOOOOOOO",
"OOOOOOOOOOOOOOOOOOOOOOOOOOOOOOOOOOOOOOOOOOOOOOOOOOOOOOOOOOOOOOOO",
"OOOOOOOOOOOOOOOOOOOOOOOOOOOOOOOOOOOOOOOOOOOOOOOOOOOOOOOOOOOOOOOO",
"OOOOOOOOOOOOOOOOOOOOOOOOOOOOOOOOOOOOOOOOOOOOOOOOOOOOOOOOOOOOOOOO",
"OOOOOOOOOOOOOOOOOOOOOOOOOOOOOOOOOOOOOOOOOOOOOOOOOOOOOOOOOOOOOOOO",
"OOOOOOOOOOOOOOOOOOOOOOOOOOOOOOOOOOOOOOOOOOOOOOOOOOOOOOOOOOOOOOOO",
"OOOOOOOOOOOOOOOOOOOOOOOOOOOOOOOOOOOOOOOOOOOOOOOOOOOOOOOOOOOOOOOO",
"OOOOOOOOOOOOOOOOOOOOOOOOOOOOOOOOOOOOOOOOOOOOOOOOOOOOOOOOOOOOOOOO",
"OOOOOOOOOOOOOOOOOOOOOOOOOOOOOOOOOOOOOOOOOOOOOOOOOOOOOOOOOOOOOOOO",
"OOOOOOOOOOOOOOOOOOOOOOOOOOOOOOOOOOOOOOOOOOOOOOOOOOOOOOOOOOOOOOOO",
"OOOOOOOOOOOOOOOOOOOOOOOOOOOOOOOOOOOOOOOOOOOOOOOOOOOOOOOOOOOOOOOO",
"OOOOOOOOOOOOOOOOOOOOOOOOOOOOOOOOOOOOOOOOOOOOOOOOOOOOOOOOOOOOOOOO",
"OOOOOOOOOOOOOOOOOOOOOOOOOOOOOOOOOOOOOOOOOOOOOOOOOOOOOOOOOOOOOOOO",
"OOOOOOOOOOOOOOOOOOOOOOOOOOOOOOOOOOOOOOOOOOOOOOOOOOOOOOOOOOOOOOOO",
"OOOOOOOOOOOOOOOOOOOOOOOOOOOOOOOOOOOOOOOOOOOOOOOOOOOOOOOOOOOOOOOO",
"OOOOOOOOOOOOOOOOOOOOOOOOOOOOOOOOOOOOOOOOOOOOOOOOOOOOOOOOOOOOOOOO",
"OOOOOOOOOOOOOOOOOOOOOOOOOOOOOOOOOOOOOOOOOOOOOOOOOOOOOOOOOOOOOOOO",
"OOOOOOOOOOOOOOOOOOOOOOOOOOOOOOOOOOOOOOOOOOOOOOOOOOOOOOOOOOOOOOOO",
"OOOOOOOOOOOOOOOOOOOOOOOOOOOOOOOOOOOOOOOOOOOOOOOOOOOOOOOOOOOOOOOO",
"OOOOOOOOOOOOOOOOOOOOOOOOOO  OOOOOOOO          OOOOOOOOOOOOOOOOOO",
"OOOOOOOOOOOOOOOOOOOOOOOOOO  OOOOOOOO          OOOOOOOOOOOOOOOOOO",
"OOOOOOOOOOOOOOOOOOOOOOOO    OOOOOO  XXoooooooo  OOOOOOOOOOOOOOOO",
"OOOOOOOOOOOOOOOOOOOOOOOO    OOOOOO  XXoooooooo  OOOOOOOOOOOOOOOO",
"OOOOOOOOOOOOOOOOOOOO    oo  OOOOOO  ..XXXXXXoooo  OOOOOOOOOOOOOO",
"OOOOOOOOOOOOOOOOOOOO    oo  OOOOOO  ..XXXXXXoooo  OOOOOOOOOOOOOO",
"OOOOOOOOOOOOOOOOOO  XX..XXoo  OOOO  ....XXooXXoo  OOOOOOOOOOOOOO",
"OOOOOOOOOOOOOOOOOO  XX..XXoo  OOOO  ....XXooXXoo  OOOOOOOOOOOOOO",
"OOOOOOOOOOOOOOOOOO  XXXXXXXXoo  OOOO      ..ooXXoo  OOOOOOOOOOOO",
"OOOOOOOOOOOOOOOOOO  XXXXXXXXoo  OOOO      ..ooXXoo  OOOOOOOOOOOO",
"OOOOOOOOOOOOOOOOOOOO      XXXXoo  OOOOOOOO  ooXXoooo  OOOOOOOOOO",
"OOOOOOOOOOOOOOOOOOOO      XXXXoo  OOOOOOOO  ooXXoooo  OOOOOOOOOO",
"OOOOOOOOOOOOOOOOOOOOOOOOOO  XXXXoo  OOOOOO  ..ooXXoo  OOOOOOOOOO",
"OOOOOOOOOOOOOOOOOOOOOOOOOO  XXXXoo  OOOOOO  ..ooXXoo  OOOOOOOOOO",
"OOOOOOOOOOOOOOOOOOOOOOOOOO  XXXXXXoo  OOOO  ..ooXXoo  OOOOOOOOOO",
"OOOOOOOOOOOOOOOOOOOOOOOOOO  XXXXXXoo  OOOO  ..ooXXoo  OOOOOOOOOO",
"OOOOOOOOOOOOOOOOOOOOOO    ooXXXXXXXXoo    ooooXXoo  OOOOOOOOOOOO",
"OOOOOOOOOOOOOOOOOOOOOO    ooXXXXXXXXoo    ooooXXoo  OOOOOOOOOOOO",
"OOOOOOOOOOOOOOOOOOOO  XXXXooooXX..XXXXooooooXXXXoo  OOOOOOOOOOOO",
"OOOOOOOOOOOOOOOOOOOO  XXXXooooXX..XXXXooooooXXXXoo  OOOOOOOOOOOO",
"OOOOOOOOOOOOOOOOOOOOOO      ooXX..XXooXXXXXXoooo  OOOOOOOOOOOOOO",
"OOOOOOOOOOOOOOOOOOOOOO      ooXX..XXooXXXXXXoooo  OOOOOOOOOOOOOO",
"OOOOOOOOOOOOOOOOOOOOOO      XX......XXXXoooo    OOOOOOOOOOOOOOOO",
"OOOOOOOOOOOOOOOOOOOOOO      XX......XXXXoooo    OOOOOOOOOOOOOOOO",
"OOOOOOOOOOOOOOOOOOOOOO  ..XX....XXXXXXXX    OOOOOOOOOOOOOOOOOOOO",
"OOOOOOOOOOOOOOOOOOOOOO  ..XX....XXXXXXXX    OOOOOOOOOOOOOOOOOOOO",
"OOOOOOOOOOOOOOOOOOOOOOOO                OOOOOOOOOOOOOOOOOOOOOOOO",
"OOOOOOOOOOOOOOOOOOOOOOOO                OOOOOOOOOOOOOOOOOOOOOOOO",
"OOOOOOOOOOOOOOOOOOOOOOOOOOOOOOOOOOOOOOOOOOOOOOOOOOOOOOOOOOOOOOOO",
"OOOOOOOOOOOOOOOOOOOOOOOOOOOOOOOOOOOOOOOOOOOOOOOOOOOOOOOOOOOOOOOO",
"OOOOOOOOOOOOOOOOOOOOOOOOOOOOOOOOOOOOOOOOOOOOOOOOOOOOOOOOOOOOOOOO",
"OOOOOOOOOOOOOOOOOOOOOOOOOOOOOOOOOOOOOOOOOOOOOOOOOOOOOOOOOOOOOOOO",
"OOOOOOOOOOOOOOOOOOOOOOOOOOOOOOOOOOOOOOOOOOOOOOOOOOOOOOOOOOOOOOOO",
"OOOOOOOOOOOOOOOOOOOOOOOOOOOOOOOOOOOOOOOOOOOOOOOOOOOOOOOOOOOOOOOO",
"OOOOOOOOOOOOOOOOOOOOOOOOOOOOOOOOOOOOOOOOOOOOOOOOOOOOOOOOOOOOOOOO",
"OOOOOOOOOOOOOOOOOOOOOOOOOOOOOOOOOOOOOOOOOOOOOOOOOOOOOOOOOOOOOOOO",
"OOOOOOOOOOOOOOOOOOOOOOOOOOOOOOOOOOOOOOOOOOOOOOOOOOOOOOOOOOOOOOOO",
"OOOOOOOOOOOOOOOOOOOOOOOOOOOOOOOOOOOOOOOOOOOOOOOOOOOOOOOOOOOOOOOO",
"OOOOOOOOOOOOOOOOOOOOOOOOOOOOOOOOOOOOOOOOOOOOOOOOOOOOOOOOOOOOOOOO",
"OOOOOOOOOOOOOOOOOOOOOOOOOOOOOOOOOOOOOOOOOOOOOOOOOOOOOOOOOOOOOOOO",
"OOOOOOOOOOOOOOOOOOOOOOOOOOOOOOOOOOOOOOOOOOOOOOOOOOOOOOOOOOOOOOOO",
"OOOOOOOOOOOOOOOOOOOOOOOOOOOOOOOOOOOOOOOOOOOOOOOOOOOOOOOOOOOOOOOO",
"OOOOOOOOOOOOOOOOOOOOOOOOOOOOOOOOOOOOOOOOOOOOOOOOOOOOOOOOOOOOOOOO",
"OOOOOOOOOOOOOOOOOOOOOOOOOOOOOOOOOOOOOOOOOOOOOOOOOOOOOOOOOOOOOOOO"
};
