/* XPM */
static char *result[] = {
/* columns rows colors chars-per-pixel */
"64 64 5 1 ",
"  c gray12",
". c #4D533C",
"X c #8B956D",
"o c #C4CFA1",
"O c None",
/* pixels */
"OOOOOOOOOOOOOOOOOOOOOOOOOOOOOOOOOOOOOOOOOOOOOOOOOOOOOOOOOOOOOOOO",
"OOOOOOOOOOOOOOOOOOOOOOOOOOOOOOOOOOOOOOOOOOOOOOOOOOOOOOOOOOOOOOOO",
"OOOOOOOOOOOOOOOOOOOOOOOOOOOOOOOOOOOOOOOOOOOOOOOOOOOOOOOOOOOOOOOO",
"OOOOOOOOOOOOOOOOOOOOOOOOOOOOOOOOOOOOOOOOOOOOOOOOOOOOOOOOOOOOOOOO",
"OOOOOOOOOOOOOOOOOOOOOOOOOOOOOOOOOOOOOOOOOOOOOOOOOOOOOOOOOOOOOOOO",
"OOOOOOOOOOOOOOOOOOOOOOOOOOOOOOOOOOOOOOOOOOOOOOOOOOOOOOOOOOOOOOOO",
"OOOOOOOOOOOOOOOOOOOOOOOOOOOOOOOOOOOOOOOOOOOOOOOOOOOOOOOOOOOOOOOO",
"OOOOOOOOOOOOOOOOOOOOOOOOOOOOOOOOOOOOOOOOOOOOOOOOOOOOOOOOOOOOOOOO",
"OOOOOOOOOOOOOOOOOOOOOOOOOOOOOOOOOOOOOOOOOOOOOOOOOOOOOOOOOOOOOOOO",
"OOOOOOOOOOOOOOOOOOOOOOOOOOOOOOOOOOOOOOOOOOOOOOOOOOOOOOOOOOOOOOOO",
"OOOOOOOOOOOOOOOOOOOOOOOOOOOOOOOOOOOOOOOOOOOOOOOOOOOOOOOOOOOOOOOO",
"OOOOOOOOOOOOOOOOOOOOOOOOOOOOOOOOOOOOOOOOOOOOOOOOOOOOOOOOOOOOOOOO",
"OOOOOOOOOOOOOOOOOOOOOOOOOOOOOOOOOOOOOOOOOOOOOOOOOOOOOOOOOOOOOOOO",
"OOOOOOOOOOOOOOOOOOOOOOOOOOOOOOOOOOOOOOOOOOOOOOOOOOOOOOOOOOOOOOOO",
"OOOOOOOOOOOOOOOOOOOOOOOOOOOOOOOOOOOOOOOOOOOOOOOOOOOOOOOOOOOOOOOO",
"OOOOOOOOOOOOOOOOOOOOOOOOOOOOOOOOOOOOOOOOOOOOOOOOOOOOOOOOOOOOOOOO",
"OOOOOOOOOOOOOOOOOOOOOOOOOOOOOOOOOOOOOOOOOOOOOOOOOOOOOOOOOOOOOOOO",
"OOOOOOOOOOOOOOOOOOOOOOOOOOOOOOOOOOOOOOOOOOOOOOOOOOOOOOOOOOOOOOOO",
"OOOOOOOOOOOOOOOOOOOOOOOOOOOOOOOOOOOOOOOOOOOOOOOOOOOOOOOOOOOOOOOO",
"OOOOOOOOOOOOOOOOOOOOOOOOOOOOOOOOOOOOOOOOOOOOOOOOOOOOOOOOOOOOOOOO",
"OOOOOOOOOOOOOOOOOOOOOO      OOOOOOOO  OOOOOOOOOOOOOOOOOOOOOOOOOO",
"OOOOOOOOOOOOOOOOOOOOOO      OOOOOOOO  OOOOOOOOOOOOOOOOOOOOOOOOOO",
"OOOOOOOOOOOOOOOOOO    ooooXX  OOOOOO    OOOOOOOOOOOOOOOOOOOOOOOO",
"OOOOOOOOOOOOOOOOOO    ooooXX  OOOOOO    OOOOOOOOOOOOOOOOOOOOOOOO",
"OOOOOOOOOOOOOOOO  ooooXXXX..  OOOOOO  oo    OOOOOOOOOOOOOOOOOOOO",
"OOOOOOOOOOOOOOOO  ooooXXXX..  OOOOOO  oo    OOOOOOOOOOOOOOOOOOOO",
"OOOOOOOOOOOOOO  ooooXXXX....  OOOO  ooXX..XX  OOOOOOOOOOOOOOOOOO",
"OOOOOOOOOOOOOO  ooooXXXX....  OOOO  ooXX..XX  OOOOOOOOOOOOOOOOOO",
"OOOOOOOOOOOOOO  ooXXoo      OOOO  ooXXXXXXXX  OOOOOOOOOOOOOOOOOO",
"OOOOOOOOOOOOOO  ooXXoo      OOOO  ooXXXXXXXX  OOOOOOOOOOOOOOOOOO",
"OOOOOOOOOOOO  ooXXoo..  OOOOOO  ooXXXX      OOOOOOOOOOOOOOOOOOOO",
"OOOOOOOOOOOO  ooXXoo..  OOOOOO  ooXXXX      OOOOOOOOOOOOOOOOOOOO",
"OOOOOOOOOO  ooooXXoo  OOOOOO  ooXXXX  OOOOOOOOOOOOOOOOOOOOOOOOOO",
"OOOOOOOOOO  ooooXXoo  OOOOOO  ooXXXX  OOOOOOOOOOOOOOOOOOOOOOOOOO",
"OOOOOOOOOO  ooXXoo..  OOOO  ooXXXXXX      OOOOOOOOOOOOOOOOOOOOOO",
"OOOOOOOOOO  ooXXoo..  OOOO  ooXXXXXX      OOOOOOOOOOOOOOOOOOOOOO",
"OOOOOOOOOO  ooXXoo..  OO  ooXXXXXXXXooXXXX  OOOOOOOOOOOOOOOOOOOO",
"OOOOOOOOOO  ooXXoo..  OO  ooXXXXXXXXooXXXX  OOOOOOOOOOOOOOOOOOOO",
"OOOOOOOOOOOO  ooXXoooo  ooXXXX..XXoooo    OOOOOOOOOOOOOOOOOOOOOO",
"OOOOOOOOOOOO  ooXXoooo  ooXXXX..XXoooo    OOOOOOOOOOOOOOOOOOOOOO",
"OOOOOOOOOOOO  ooXXXXooooXXooXX..XXoo  OOOOOOOOOOOOOOOOOOOOOOOOOO",
"OOOOOOOOOOOO  ooXXXXooooXXooXX..XXoo  OOOOOOOOOOOOOOOOOOOOOOOOOO",
"OOOOOOOOOOOOOO  ooooXXXXXXXX......XX      OOOOOOOOOOOOOOOOOOOOOO",
"OOOOOOOOOOOOOO  ooooXXXXXXXX......XX      OOOOOOOOOOOOOOOOOOOOOO",
"OOOOOOOOOOOOOOOO    ooooXXXXXXXX....XX..  OOOOOOOOOOOOOOOOOOOOOO",
"OOOOOOOOOOOOOOOO    ooooXXXXXXXX....XX..  OOOOOOOOOOOOOOOOOOOOOO",
"OOOOOOOOOOOOOOOOOOOO                    OOOOOOOOOOOOOOOOOOOOOOOO",
"OOOOOOOOOOOOOOOOOOOO                    OOOOOOOOOOOOOOOOOOOOOOOO",
"OOOOOOOOOOOOOOOOOOOOOOOOOOOOOOOOOOOOOOOOOOOOOOOOOOOOOOOOOOOOOOOO",
"OOOOOOOOOOOOOOOOOOOOOOOOOOOOOOOOOOOOOOOOOOOOOOOOOOOOOOOOOOOOOOOO",
"OOOOOOOOOOOOOOOOOOOOOOOOOOOOOOOOOOOOOOOOOOOOOOOOOOOOOOOOOOOOOOOO",
"OOOOOOOOOOOOOOOOOOOOOOOOOOOOOOOOOOOOOOOOOOOOOOOOOOOOOOOOOOOOOOOO",
"OOOOOOOOOOOOOOOOOOOOOOOOOOOOOOOOOOOOOOOOOOOOOOOOOOOOOOOOOOOOOOOO",
"OOOOOOOOOOOOOOOOOOOOOOOOOOOOOOOOOOOOOOOOOOOOOOOOOOOOOOOOOOOOOOOO",
"OOOOOOOOOOOOOOOOOOOOOOOOOOOOOOOOOOOOOOOOOOOOOOOOOOOOOOOOOOOOOOOO",
"OOOOOOOOOOOOOOOOOOOOOOOOOOOOOOOOOOOOOOOOOOOOOOOOOOOOOOOOOOOOOOOO",
"OOOOOOOOOOOOOOOOOOOOOOOOOOOOOOOOOOOOOOOOOOOOOOOOOOOOOOOOOOOOOOOO",
"OOOOOOOOOOOOOOOOOOOOOOOOOOOOOOOOOOOOOOOOOOOOOOOOOOOOOOOOOOOOOOOO",
"OOOOOOOOOOOOOOOOOOOOOOOOOOOOOOOOOOOOOOOOOOOOOOOOOOOOOOOOOOOOOOOO",
"OOOOOOOOOOOOOOOOOOOOOOOOOOOOOOOOOOOOOOOOOOOOOOOOOOOOOOOOOOOOOOOO",
"OOOOOOOOOOOOOOOOOOOOOOOOOOOOOOOOOOOOOOOOOOOOOOOOOOOOOOOOOOOOOOOO",
"OOOOOOOOOOOOOOOOOOOOOOOOOOOOOOOOOOOOOOOOOOOOOOOOOOOOOOOOOOOOOOOO",
"OOOOOOOOOOOOOOOOOOOOOOOOOOOOOOOOOOOOOOOOOOOOOOOOOOOOOOOOOOOOOOOO",
"OOOOOOOOOOOOOOOOOOOOOOOOOOOOOOOOOOOOOOOOOOOOOOOOOOOOOOOOOOOOOOOO"
};
