/* XPM */
static char *result[] = {
/* columns rows colors chars-per-pixel */
"64 64 5 1 ",
"  c gray12",
". c #4D533C",
"X c #8B956D",
"o c #C4CFA1",
"O c None",
/* pixels */
"OOOOOOOOOOOOOOOOOOOOOOOOOOOOOOOOOOOOOOOOOOOOOOOOOOOOOOOOOOOOOOOO",
"OOOOOOOOOOOOOOOOOOOOOOOOOOOOOOOOOOOOOOOOOOOOOOOOOOOOOOOOOOOOOOOO",
"OOOOOOOOOOOOOOOOOOOOOOOOOOOOOOOOOOOOOOOOOOOOOOOOOOOOOOOOOOOOOOOO",
"OOOOOOOOOOOOOOOOOOOOOOOOOOOOOOOOOOOOOOOOOOOOOOOOOOOOOOOOOOOOOOOO",
"OOOOOOOOOOOOOOOOOOOOOOOOOOOOOOOOOOOOOOOOOOOOOOOOOOOOOOOOOOOOOOOO",
"OOOOOOOOOOOOOOOOOOOOOOOOOOOOOOOOOOOOOOOOOOOOOOOOOOOOOOOOOOOOOOOO",
"OOOOOOOOOOOOOOOOOOOOOOOOOOOOOOOOOOOOOOOOOOOOOOOOOOOOOOOOOOOOOOOO",
"OOOOOOOOOOOOOOOOOOOOOOOOOOOOOOOOOOOOOOOOOOOOOOOOOOOOOOOOOOOOOOOO",
"OOOOOOOOOOOOOOOOOOOOOOOOOOOOOOOOOOOOOOOOOOOOOOOOOOOOOOOOOOOOOOOO",
"OOOOOOOOOOOOOOOOOOOOOOOOOOOOOOOOOOOOOOOOOOOOOOOOOOOOOOOOOOOOOOOO",
"OOOOOOOOOOOOOOOOOOOOOOOOOOOOOOOOOOOOOOOOOOOOOOOOOOOOOOOOOOOOOOOO",
"OOOOOOOOOOOOOOOOOOOOOOOOOOOOOOOOOOOOOOOOOOOOOOOOOOOOOOOOOOOOOOOO",
"OOOOOOOOOOOOOOOOOOOOOOOOOOOOOOOOOOOOOOOOOOOOOOOOOOOOOOOOOOOOOOOO",
"OOOOOOOOOOOOOOOOOOOOOOOOOOOOOOOOOOOOOOOOOOOOOOOOOOOOOOOOOOOOOOOO",
"OOOOOOOOOOOOOOOOOOOOOOOOOOOOOOOOOOOOOOOOOOOOOOOOOOOOOOOOOOOOOOOO",
"OOOOOOOOOOOOOOOOOOOOOOOOOOOOOOOOOOOOOOOOOOOOOOOOOOOOOOOOOOOOOOOO",
"OOOOOOOOOOOOOOOOOOOOOOOOOOOOOOOOOOOOOOOOOOOOOOOOOOOOOOOOOOOOOOOO",
"OOOOOOOOOOOOOOOOOOOOOOOOOOOOOOOOOOOOOOOOOOOOOOOOOOOOOOOOOOOOOOOO",
"OOOOOOOOOOOOOOOOOOOOOOOOOOOOOOOOOOOOOOOOOOOOOOOOOOOOOOOOOOOOOOOO",
"OOOOOOOOOOOOOOOOOOOOOOOOOOOOOOOOOOOOOOOOOOOOOOOOOOOOOOOOOOOOOOOO",
"OOOOOOOOOOOOOOOOOOOOOOOOOO  OOOOOOOO      OOOOOOOOOOOOOOOOOOOOOO",
"OOOOOOOOOOOOOOOOOOOOOOOOOO  OOOOOOOO      OOOOOOOOOOOOOOOOOOOOOO",
"OOOOOOOOOOOOOOOOOOOOOOOO    OOOOOO  XXoooo    OOOOOOOOOOOOOOOOOO",
"OOOOOOOOOOOOOOOOOOOOOOOO    OOOOOO  XXoooo    OOOOOOOOOOOOOOOOOO",
"OOOOOOOOOOOOOOOOOOOO    oo  OOOOOO  ..XXXXoooo  OOOOOOOOOOOOOOOO",
"OOOOOOOOOOOOOOOOOOOO    oo  OOOOOO  ..XXXXoooo  OOOOOOOOOOOOOOOO",
"OOOOOOOOOOOOOOOOOO  XX..XXoo  OOOO  ....XXXXoooo  OOOOOOOOOOOOOO",
"OOOOOOOOOOOOOOOOOO  XX..XXoo  OOOO  ....XXXXoooo  OOOOOOOOOOOOOO",
"OOOOOOOOOOOOOOOOOO  XXXXXXXXoo  OOOO      ooXXoo  OOOOOOOOOOOOOO",
"OOOOOOOOOOOOOOOOOO  XXXXXXXXoo  OOOO      ooXXoo  OOOOOOOOOOOOOO",
"OOOOOOOOOOOOOOOOOOOO      XXXXoo  OOOOOO  ..ooXXoo  OOOOOOOOOOOO",
"OOOOOOOOOOOOOOOOOOOO      XXXXoo  OOOOOO  ..ooXXoo  OOOOOOOOOOOO",
"OOOOOOOOOOOOOOOOOOOOOOOOOO  XXXXoo  OOOOOO  ooXXoooo  OOOOOOOOOO",
"OOOOOOOOOOOOOOOOOOOOOOOOOO  XXXXoo  OOOOOO  ooXXoooo  OOOOOOOOOO",
"OOOOOOOOOOOOOOOOOOOOOO      XXXXXXoo  OOOO  ..ooXXoo  OOOOOOOOOO",
"OOOOOOOOOOOOOOOOOOOOOO      XXXXXXoo  OOOO  ..ooXXoo  OOOOOOOOOO",
"OOOOOOOOOOOOOOOOOOOO  XXXXooXXXXXXXXoo  OO  ..ooXXoo  OOOOOOOOOO",
"OOOOOOOOOOOOOOOOOOOO  XXXXooXXXXXXXXoo  OO  ..ooXXoo  OOOOOOOOOO",
"OOOOOOOOOOOOOOOOOOOOOO    ooooXX..XXXXoo  ooooXXoo  OOOOOOOOOOOO",
"OOOOOOOOOOOOOOOOOOOOOO    ooooXX..XXXXoo  ooooXXoo  OOOOOOOOOOOO",
"OOOOOOOOOOOOOOOOOOOOOOOOOO  ooXX..XXooXXooooXXXXoo  OOOOOOOOOOOO",
"OOOOOOOOOOOOOOOOOOOOOOOOOO  ooXX..XXooXXooooXXXXoo  OOOOOOOOOOOO",
"OOOOOOOOOOOOOOOOOOOOOO      XX......XXXXXXXXoooo  OOOOOOOOOOOOOO",
"OOOOOOOOOOOOOOOOOOOOOO      XX......XXXXXXXXoooo  OOOOOOOOOOOOOO",
"OOOOOOOOOOOOOOOOOOOOOO  ..XX....XXXXXXXXoooo    OOOOOOOOOOOOOOOO",
"OOOOOOOOOOOOOOOOOOOOOO  ..XX....XXXXXXXXoooo    OOOOOOOOOOOOOOOO",
"OOOOOOOOOOOOOOOOOOOOOOOO                    OOOOOOOOOOOOOOOOOOOO",
"OOOOOOOOOOOOOOOOOOOOOOOO                    OOOOOOOOOOOOOOOOOOOO",
"OOOOOOOOOOOOOOOOOOOOOOOOOOOOOOOOOOOOOOOOOOOOOOOOOOOOOOOOOOOOOOOO",
"OOOOOOOOOOOOOOOOOOOOOOOOOOOOOOOOOOOOOOOOOOOOOOOOOOOOOOOOOOOOOOOO",
"OOOOOOOOOOOOOOOOOOOOOOOOOOOOOOOOOOOOOOOOOOOOOOOOOOOOOOOOOOOOOOOO",
"OOOOOOOOOOOOOOOOOOOOOOOOOOOOOOOOOOOOOOOOOOOOOOOOOOOOOOOOOOOOOOOO",
"OOOOOOOOOOOOOOOOOOOOOOOOOOOOOOOOOOOOOOOOOOOOOOOOOOOOOOOOOOOOOOOO",
"OOOOOOOOOOOOOOOOOOOOOOOOOOOOOOOOOOOOOOOOOOOOOOOOOOOOOOOOOOOOOOOO",
"OOOOOOOOOOOOOOOOOOOOOOOOOOOOOOOOOOOOOOOOOOOOOOOOOOOOOOOOOOOOOOOO",
"OOOOOOOOOOOOOOOOOOOOOOOOOOOOOOOOOOOOOOOOOOOOOOOOOOOOOOOOOOOOOOOO",
"OOOOOOOOOOOOOOOOOOOOOOOOOOOOOOOOOOOOOOOOOOOOOOOOOOOOOOOOOOOOOOOO",
"OOOOOOOOOOOOOOOOOOOOOOOOOOOOOOOOOOOOOOOOOOOOOOOOOOOOOOOOOOOOOOOO",
"OOOOOOOOOOOOOOOOOOOOOOOOOOOOOOOOOOOOOOOOOOOOOOOOOOOOOOOOOOOOOOOO",
"OOOOOOOOOOOOOOOOOOOOOOOOOOOOOOOOOOOOOOOOOOOOOOOOOOOOOOOOOOOOOOOO",
"OOOOOOOOOOOOOOOOOOOOOOOOOOOOOOOOOOOOOOOOOOOOOOOOOOOOOOOOOOOOOOOO",
"OOOOOOOOOOOOOOOOOOOOOOOOOOOOOOOOOOOOOOOOOOOOOOOOOOOOOOOOOOOOOOOO",
"OOOOOOOOOOOOOOOOOOOOOOOOOOOOOOOOOOOOOOOOOOOOOOOOOOOOOOOOOOOOOOOO",
"OOOOOOOOOOOOOOOOOOOOOOOOOOOOOOOOOOOOOOOOOOOOOOOOOOOOOOOOOOOOOOOO"
};
