/* XPM */
static char *result[] = {
/* columns rows colors chars-per-pixel */
"64 64 4 1 ",
"  c gray12",
". c #4D533C",
"X c #8B956D",
"o c #C4CFA1",
/* pixels */
"oooooooooooooooooooooooooooooooooooooooooooooooooooooooooooooooo",
"oooooooooooooooooooooooooooooooooooooooooooooooooooooooooooooooo",
"oooooooooooooooooooooooooooooooooooooooooooooooooooooooooooooooo",
"oooooooooooooooooooooooooooooooooooooooooooooooooooooooooooooooo",
"oooooooooooooooooooooooooooooooooooooooooooooooooooooooooooooooo",
"oooooooooooooooooooooooooooooooooooooooooooooooooooooooooooooooo",
"oooooooooooooooooooooooooooooooooooooooooooooooooooooooooooooooo",
"oooooooooooooooooooooooooooooooooooooooooooooooooooooooooooooooo",
"oooooooooooooooooooooooooooooooooooooooooooooooooooooooooooooooo",
"oooooooooooooooooooooooooooooooooooooooooooooooooooooooooooooooo",
"oooooooooooooooooooooooooooooooooooooooooooooooooooooooooooooooo",
"oooooooooooooooooooooooooooooooooooooooooooooooooooooooooooooooo",
"oooooooooooooooooooooooooooooooooooooooooooooooooooooooooooooooo",
"oooooooooooooooooooooooooooooooooooooooooooooooooooooooooooooooo",
"oooooooooooooooooooooooooooooooo        oooooooooooooooooooooooo",
"oooooooooooooooooooooooooooooooo        oooooooooooooooooooooooo",
"oooooooooooooooooooooooooooooo  XXXXoooo  oooooooooooooooooooooo",
"oooooooooooooooooooooooooooooo  XXXXoooo  oooooooooooooooooooooo",
"oooooooooooooooooooooooooooo  XXXXXXXXXXoo  oooooooooooooooooooo",
"oooooooooooooooooooooooooooo  XXXXXXXXXXoo  oooooooooooooooooooo",
"oooooooooooooooooooooooooooo  XXXX..XXXXXXoo  oooooooooooooooooo",
"oooooooooooooooooooooooooooo  XXXX..XXXXXXoo  oooooooooooooooooo",
"oooooooooooooooooooooooooooo  XXXX....XXXXXXoo  oooooooooooooooo",
"oooooooooooooooooooooooooooo  XXXX....XXXXXXoo  oooooooooooooooo",
"oooooooooooooooooooooooooo    ooXXXX....XXXXooXX  oooooooooooooo",
"oooooooooooooooooooooooooo    ooXXXX....XXXXooXX  oooooooooooooo",
"oooooooooooooooooooooooooo      ooXXXXXX..XXXXXX  oooooooooooooo",
"oooooooooooooooooooooooooo      ooXXXXXX..XXXXXX  oooooooooooooo",
"oooooooooooooooooooooooooo  ....XXXXXXXXXXXXXXXXXX  oooooooooooo",
"oooooooooooooooooooooooooo  ....XXXXXXXXXXXXXXXXXX  oooooooooooo",
"oooooooooooooooooooooooo  ......XXXXXXXXooXXXXXXXX  oooooooooooo",
"oooooooooooooooooooooooo  ......XXXXXXXXooXXXXXXXX  oooooooooooo",
"oooooooooooooooooo        ........XXXXXXooXXXXXXXX  oooooooooooo",
"oooooooooooooooooo        ........XXXXXXooXXXXXXXX  oooooooooooo",
"oooooooooooooooo          ..........XXXXXXooXXXXXXoo  oooooooooo",
"oooooooooooooooo          ..........XXXXXXooXXXXXXoo  oooooooooo",
"oooooooooooooooo  XXXXXX      ..........XXXXooXXXXoooo    oooooo",
"oooooooooooooooo  XXXXXX      ..........XXXXooXXXXoooo    oooooo",
"oooooooooooooo  ......XXXX        ........XXooXXXXXXXXoooo  oooo",
"oooooooooooooo  ......XXXX        ........XXooXXXXXXXXoooo  oooo",
"oooooooooooo      ......XXXXXX      ......XXXXXX....XXXXoo  oooo",
"oooooooooooo      ......XXXXXX      ......XXXXXX....XXXXoo  oooo",
"oooooooooooo          ......XXXXXX  ..........XXXX....XXXX  oooo",
"oooooooooooo          ......XXXXXX  ..........XXXX....XXXX  oooo",
"oooooooooooo                ....XXXX    ........XXXX....XX  oooo",
"oooooooooooo                ....XXXX    ........XXXX....XX  oooo",
"oooooooooooo                              ..............    oooo",
"oooooooooooo                              ..............    oooo",
"oooooooooooooo                        ..........          oooooo",
"oooooooooooooo                        ..........          oooooo",
"oooooooooooooooooo                                      oooooooo",
"oooooooooooooooooo                                      oooooooo",
"oooooooooooooooooooooooooooooooooooooooooooooooooooooooooooooooo",
"oooooooooooooooooooooooooooooooooooooooooooooooooooooooooooooooo",
"oooooooooooooooooooooooooooooooooooooooooooooooooooooooooooooooo",
"oooooooooooooooooooooooooooooooooooooooooooooooooooooooooooooooo",
"oooooooooooooooooooooooooooooooooooooooooooooooooooooooooooooooo",
"oooooooooooooooooooooooooooooooooooooooooooooooooooooooooooooooo",
"oooooooooooooooooooooooooooooooooooooooooooooooooooooooooooooooo",
"oooooooooooooooooooooooooooooooooooooooooooooooooooooooooooooooo",
"oooooooooooooooooooooooooooooooooooooooooooooooooooooooooooooooo",
"oooooooooooooooooooooooooooooooooooooooooooooooooooooooooooooooo",
"oooooooooooooooooooooooooooooooooooooooooooooooooooooooooooooooo",
"oooooooooooooooooooooooooooooooooooooooooooooooooooooooooooooooo"
};
