/* XPM */
static char *result[] = {
/* columns rows colors chars-per-pixel */
"60 20 2 1 ",
"  c black",
". c #C4CFA1",
/* pixels */
"....  ..............  ....  ....  ........  ....        ....",
"....  ..............  ....  ....  ........  ....        ....",
"....  ..............  ....  ....    ......  ....  ....  ....",
"....  ..............  ....  ....    ......  ....  ....  ....",
"....  ..............  ....  ....    ......  ....  ....  ....",
"....  ..............  ....  ....    ......  ....  ....  ....",
"....  ..............  ....  ....  ..  ....  ....  ....  ....",
"....  ..............  ....  ....  ..  ....  ....  ....  ....",
"....  ..............  ....  ....  ..  ....  ....  ....  ....",
"....  ..............  ....  ....  ..  ....  ....  ....  ....",
"......  ..........  ......  ....  ....  ..  ......    ......",
"......  ..........  ......  ....  ....  ..  ......    ......",
"......  ....  ....  ......  ....  ....  ..  ......    ......",
"......  ....  ....  ......  ....  ....  ..  ......    ......",
"......  ..  ..  ..  ......  ....  ......    ................",
"......  ..  ..  ..  ......  ....  ......    ................",
"........    ..    ........  ....  ......    ......    ......",
"........    ..    ........  ....  ......    ......    ......",
"........  ......  ........  ....  ........  ......    ......",
"........  ......  ........  ....  ........  ......    ......"
};
